<?xml version="1.0" encoding="UTF-8" standalone="no"?>
<!-- Created with Inkscape (http://www.inkscape.org/) -->

<svg
   width="150.17212mm"
   height="17.688293mm"
   viewBox="0 0 150.17212 17.688293"
   version="1.1"
   id="svg5"
   xml:space="preserve"
   inkscape:export-filename="electromotion-labs.png"
   inkscape:export-xdpi="1435.9779"
   inkscape:export-ydpi="1435.9779"
   inkscape:version="1.2.1 (9c6d41e410, 2022-07-14)"
   sodipodi:docname="logo_full.svg"
   xmlns:inkscape="http://www.inkscape.org/namespaces/inkscape"
   xmlns:sodipodi="http://sodipodi.sourceforge.net/DTD/sodipodi-0.dtd"
   xmlns="http://www.w3.org/2000/svg"
   xmlns:svg="http://www.w3.org/2000/svg"><sodipodi:namedview
     id="namedview7"
     pagecolor="#505050"
     bordercolor="#eeeeee"
     borderopacity="1"
     inkscape:showpageshadow="0"
     inkscape:pageopacity="0"
     inkscape:pagecheckerboard="0"
     inkscape:deskcolor="#505050"
     inkscape:document-units="mm"
     showgrid="false"
     inkscape:zoom="1.2623761"
     inkscape:cx="399.2471"
     inkscape:cy="329.53729"
     inkscape:window-width="1920"
     inkscape:window-height="1017"
     inkscape:window-x="-8"
     inkscape:window-y="-8"
     inkscape:window-maximized="1"
     inkscape:current-layer="layer1" /><defs
     id="defs2" /><g
     inkscape:label="Layer 1"
     inkscape:groupmode="layer"
     id="layer1"
     transform="translate(-29.864951,-76.063001)"><text
       xml:space="preserve"
       style="font-style:normal;font-variant:normal;font-weight:normal;font-stretch:normal;font-size:25.4px;line-height:0px;font-family:Calibri;-inkscape-font-specification:Calibri;text-align:center;text-anchor:middle;fill:#5e669c;fill-opacity:1;stroke:#c4c3d7;stroke-width:0.265;stroke-dasharray:none;stroke-opacity:1"
       x="105.10294"
       y="93.03788"
       id="text2356"><tspan
         id="tspan2354"
         style="font-style:normal;font-variant:normal;font-weight:normal;font-stretch:normal;font-size:25.4px;font-family:Gabriola;-inkscape-font-specification:Gabriola;fill:#ffffff;fill-opacity:1;stroke:#000080;stroke-width:0.265;stroke-dasharray:none;stroke-opacity:1"
         x="105.10294"
         y="93.03788"
         sodipodi:role="line"><tspan
   style="fill:#ff8808;fill-opacity:1;stroke:#000080;stroke-width:0.265;stroke-dasharray:none;stroke-opacity:1"
   id="tspan3050">Electro</tspan>M<tspan
   style="fill:#fffcfc;fill-opacity:1;stroke:#000080;stroke-width:0.265;stroke-dasharray:none;stroke-opacity:1"
   id="tspan2872">  </tspan>tion <tspan
   style="fill:#138808;fill-opacity:1;stroke:#000080;stroke-width:0.265;stroke-dasharray:none;stroke-opacity:1"
   id="tspan3374">Labs</tspan></tspan></text><path
       d="m 104.6407,84.721731 c -0.0113,0.0064 -0.0298,0.0184 -0.0396,0.02975 -0.0105,0.01108 -0.10824,0.18885 -0.21855,0.395376 -0.11027,0.205839 -0.21078,0.391145 -0.22351,0.411658 -0.0375,0.0594 -0.0346,0.05867 -0.23199,0.06654 l -0.17472,0.0073 -0.0375,-0.0184 c -0.0374,-0.0184 -0.0417,-0.02406 -0.29424,-0.388318 -0.14146,-0.202991 -0.26381,-0.37911 -0.27302,-0.391137 -0.0205,-0.02764 -0.0565,-0.04531 -0.0933,-0.04531 -0.0304,0 -0.83039,0.265958 -0.85797,0.285051 -0.0411,0.02892 -0.0495,0.06298 -0.0417,0.166215 0.0171,0.20937 0.0502,0.630923 0.0574,0.727829 l 0.008,0.108264 -0.0204,0.04027 c -0.0198,0.03891 -0.0268,0.04531 -0.16551,0.141465 -0.08,0.0552 -0.15631,0.103964 -0.16976,0.108263 -0.058,0.01693 -0.065,0.01483 -0.52058,-0.174012 -0.46752,-0.193803 -0.45408,-0.188841 -0.50925,-0.1641 -0.0269,0.01273 -0.55242,0.666293 -0.56303,0.700242 -0.005,0.02051 -0.005,0.03406 0,0.05446 0.005,0.01767 0.10757,0.157729 0.28435,0.390433 0.23907,0.315466 0.27655,0.368519 0.28363,0.398935 0.0105,0.04596 0.0105,0.04596 -0.082,0.265235 -0.0814,0.195924 -0.0997,0.223503 -0.15491,0.24332 -0.0161,0.0064 -0.22916,0.04668 -0.4746,0.09062 -0.466821,0.08348 -0.468939,0.08421 -0.50007,0.126616 -0.0368,0.04943 -0.128018,0.896861 -0.09831,0.914537 0.0045,0.0027 0.207235,0.0778 0.450541,0.166937 0.243329,0.08915 0.452689,0.168337 0.464719,0.175404 0.0468,0.02691 0.0573,0.05729 0.0997,0.292126 0.0219,0.11955 0.0395,0.231999 0.0395,0.251083 0,0.02197 -0.006,0.04604 -0.0161,0.06435 -0.0105,0.02051 -0.11812,0.125199 -0.348,0.338808 -0.18319,0.169756 -0.338802,0.318991 -0.346582,0.330305 -0.0094,0.01483 -0.01342,0.03323 -0.01269,0.0573 0,0.03249 0.01762,0.06865 0.180372,0.384765 0.0997,0.191688 0.18956,0.357902 0.20017,0.369224 0.0105,0.01108 0.0319,0.02334 0.048,0.02764 0.0276,0.0073 0.0616,9.16e-4 0.47178,-0.09116 0.46258,-0.104687 0.47885,-0.106782 0.53048,-0.08275 0.0276,0.01337 0.35648,0.35294 0.37628,0.388308 0.0269,0.04943 0.0255,0.06371 -0.0467,0.345169 -0.16622,0.64861 -0.16267,0.63445 -0.15349,0.664866 0.004,0.01556 0.0156,0.03606 0.0241,0.04604 0.008,0.0099 0.17117,0.105436 0.36145,0.212191 0.31332,0.176118 0.3494,0.194516 0.37841,0.194516 0.0191,0 0.0417,-0.0064 0.0537,-0.01273 0.012,-0.0073 0.16267,-0.157024 0.33597,-0.333133 0.17329,-0.176136 0.32607,-0.326075 0.34093,-0.33315 0.0516,-0.02764 0.0658,-0.02617 0.32465,0.03176 0.13368,0.02975 0.25109,0.05867 0.26029,0.06508 0.0488,0.03176 0.0516,0.03818 0.20229,0.490869 0.14217,0.426507 0.14641,0.43782 0.17328,0.461874 0.0156,0.01409 0.0389,0.02691 0.0545,0.02965 0.0644,0.01226 0.4654,-0.01337 0.72146,-0.04604 0.11599,-0.01483 0.14075,-0.02691 0.16055,-0.07991 0.006,-0.01693 0.0531,-0.227743 0.10329,-0.468236 0.0608,-0.287165 0.0969,-0.445608 0.10541,-0.45975 0.0276,-0.04384 0.0481,-0.05446 0.26382,-0.13652 0.23271,-0.08915 0.26242,-0.09549 0.31405,-0.06791 0.0127,0.0073 0.17542,0.135094 0.36073,0.285043 0.18602,0.149939 0.3473,0.277965 0.35932,0.285032 0.0156,0.0083 0.0318,0.01226 0.0587,0.0099 0.0361,-0.0027 0.0439,-0.0073 0.24686,-0.161262 0.41236,-0.311925 0.45126,-0.342341 0.46471,-0.361434 0.006,-0.0099 0.0155,-0.03395 0.017,-0.053 0.003,-0.03122 -0.0113,-0.07221 -0.16057,-0.465415 -0.0906,-0.237665 -0.1662,-0.442772 -0.16763,-0.456217 -0.006,-0.04887 0.0105,-0.07918 0.12237,-0.234836 0.0608,-0.08275 0.11748,-0.158425 0.12593,-0.16692 0.0247,-0.02764 0.0671,-0.04604 0.10676,-0.04531 0.0191,0 0.23058,0.02124 0.46893,0.04742 l 0.43289,0.04668 0.0304,-0.01337 c 0.0161,-0.0073 0.0353,-0.01977 0.0426,-0.02764 0.0105,-0.01108 0.25746,-0.674788 0.29848,-0.799976 0.0156,-0.04604 0.006,-0.08494 -0.0304,-0.121638 -0.0142,-0.01483 -0.18955,-0.14713 -0.38972,-0.294249 -0.35931,-0.263816 -0.36355,-0.267368 -0.38123,-0.306269 l -0.0176,-0.0389 0.008,-0.152063 c 0.0113,-0.198763 0.0128,-0.207962 0.0389,-0.24615 0.0213,-0.03039 0.0374,-0.03963 0.43359,-0.238368 0.22704,-0.113901 0.41731,-0.211474 0.42367,-0.216437 0.0156,-0.01336 0.0381,-0.06013 0.0381,-0.07918 0,-0.02975 -0.1832,-0.8608 -0.19451,-0.882721 -0.006,-0.01226 -0.0226,-0.02892 -0.0374,-0.0389 -0.0298,-0.01903 7e-4,-0.01693 -0.71653,-0.06298 -0.27513,-0.01767 -0.28007,-0.01903 -0.32181,-0.05867 -0.0304,-0.02892 -0.15774,-0.268775 -0.16269,-0.306972 -0.002,-0.01913 0,-0.04247 0.006,-0.0594 0.006,-0.01556 0.11465,-0.204411 0.24191,-0.419431 0.22209,-0.37347 0.23199,-0.39186 0.23199,-0.42581 -7.2e-4,-0.01913 -0.004,-0.04247 -0.0105,-0.05227 -0.0105,-0.01767 -0.60121,-0.625251 -0.63516,-0.65142 -0.0113,-0.0083 -0.0318,-0.01483 -0.0565,-0.0162 l -0.0403,-0.0027 -0.39892,0.221399 c -0.21927,0.121638 -0.41165,0.225629 -0.42722,0.231294 -0.0489,0.01693 -0.0806,0.0064 -0.2122,-0.06718 -0.13297,-0.07423 -0.14712,-0.08485 -0.16763,-0.125189 -0.0185,-0.03534 -0.0176,-0.02617 -0.0346,-0.531181 -0.0142,-0.417325 -0.0148,-0.432172 -0.0304,-0.463293 -0.0262,-0.053 0.0255,-0.03743 -0.696,-0.209363 -0.12165,-0.02837 -0.22846,-0.05227 -0.23695,-0.05227 -0.008,7.23e-4 -0.0247,0.0045 -0.0368,0.0099 z m -0.27232,1.874368 c 0.19451,0.02545 0.35577,0.06151 0.5234,0.117465 0.8905,0.29424 1.57236,1.060972 1.75698,1.974814 0.0403,0.200174 0.0494,0.296354 0.0494,0.529057 7.4e-4,0.219275 -0.002,0.273023 -0.0318,0.44915 -0.1358,0.826842 -0.67547,1.553967 -1.43159,1.92742 -0.28646,0.141464 -0.53402,0.215724 -0.8806,0.26312 -0.10824,0.01483 -0.50289,0.01226 -0.62245,-0.0037 -0.61818,-0.08421 -1.15715,-0.35295 -1.5773,-0.787236 -0.60051,-0.621021 -0.85726,-1.476869 -0.70023,-2.334124 0.10328,-0.56372 0.40953,-1.101987 0.84594,-1.487468 0.43075,-0.379824 0.95628,-0.60546 1.53415,-0.657809 0.10677,-0.0099 0.43006,-0.0037 0.53403,0.0083 z"
       id="path3843"
       style="fill:#000080;fill-opacity:1;stroke:none;stroke-width:0.00070731" /><g
       style="fill:#e9bf09;fill-opacity:1"
       id="g4697"
       transform="matrix(0.02646471,0,0,0.02646471,97.643468,76.542735)"><g
         id="g4687"
         style="fill:#e9bf09;fill-opacity:1">
	<g
   id="g4685"
   style="fill:#e9bf09;fill-opacity:1">
		<path
   d="m 207.523,560.316 c 0,0 194.42,-421.925 194.444,-421.986 l 10.79,-23.997 c -41.824,12.02 -135.271,34.902 -135.57,35.833 C 286.96,122.816 329.017,0 330.829,0 290.853,0 250.877,0 210.902,0 L 198.735,57.938 147.559,267.933 282.75,231.127 Z"
   id="path4683"
   style="fill:#e9bf09;fill-opacity:1" />
	</g>
</g></g></g></svg>
