<?xml version="1.0" encoding="UTF-8" standalone="no"?>
<!-- Created with Inkscape (http://www.inkscape.org/) -->

<svg
   width="9.0527802mm"
   height="17.208252mm"
   viewBox="0 0 9.0527802 17.208252"
   version="1.1"
   id="svg9813"
   inkscape:export-filename="electromotion-labs_mobile.svg"
   inkscape:export-xdpi="96"
   inkscape:export-ydpi="96"
   inkscape:version="1.2.1 (9c6d41e410, 2022-07-14)"
   sodipodi:docname="logo_icon.svg"
   xmlns:inkscape="http://www.inkscape.org/namespaces/inkscape"
   xmlns:sodipodi="http://sodipodi.sourceforge.net/DTD/sodipodi-0.dtd"
   xmlns="http://www.w3.org/2000/svg"
   xmlns:svg="http://www.w3.org/2000/svg">
  <sodipodi:namedview
     id="namedview9815"
     pagecolor="#505050"
     bordercolor="#eeeeee"
     borderopacity="1"
     inkscape:showpageshadow="0"
     inkscape:pageopacity="0"
     inkscape:pagecheckerboard="0"
     inkscape:deskcolor="#505050"
     inkscape:document-units="mm"
     showgrid="false"
     inkscape:zoom="10.099009"
     inkscape:cx="531.9334"
     inkscape:cy="518.66478"
     inkscape:window-width="2560"
     inkscape:window-height="1377"
     inkscape:window-x="4472"
     inkscape:window-y="286"
     inkscape:window-maximized="1"
     inkscape:current-layer="layer1" />
  <defs
     id="defs9810" />
  <g
     inkscape:label="Layer 1"
     inkscape:groupmode="layer"
     id="layer1"
     transform="translate(-134.48859,-128.03943)">
    <path
       d="m 139.60558,136.21843 c -0.0113,0.006 -0.0298,0.0184 -0.0396,0.0297 -0.0105,0.0111 -0.10824,0.18885 -0.21855,0.39537 -0.11027,0.20584 -0.21078,0.39115 -0.22351,0.41166 -0.0375,0.0594 -0.0346,0.0587 -0.23199,0.0665 l -0.17472,0.007 -0.0375,-0.0184 c -0.0374,-0.0184 -0.0417,-0.0241 -0.29424,-0.38832 -0.14146,-0.20299 -0.26381,-0.37911 -0.27302,-0.39113 -0.0205,-0.0276 -0.0565,-0.0453 -0.0933,-0.0453 -0.0304,0 -0.83039,0.26596 -0.85797,0.28505 -0.0411,0.0289 -0.0495,0.063 -0.0417,0.16621 0.0171,0.20937 0.0502,0.63093 0.0574,0.72783 l 0.008,0.10827 -0.0204,0.0403 c -0.0198,0.0389 -0.0268,0.0453 -0.16551,0.14146 -0.08,0.0552 -0.15631,0.10396 -0.16976,0.10826 -0.058,0.0169 -0.065,0.0148 -0.52058,-0.17401 -0.46752,-0.1938 -0.45408,-0.18884 -0.50925,-0.1641 -0.0269,0.0127 -0.55242,0.66629 -0.56303,0.70024 -0.005,0.0205 -0.005,0.0341 0,0.0545 0.005,0.0177 0.10757,0.15773 0.28435,0.39044 0.23907,0.31546 0.27655,0.36852 0.28363,0.39893 0.0105,0.046 0.0105,0.046 -0.082,0.26524 -0.0814,0.19592 -0.0997,0.2235 -0.15491,0.24332 -0.0161,0.006 -0.22916,0.0467 -0.4746,0.0906 -0.46682,0.0835 -0.46894,0.0842 -0.50007,0.12661 -0.0368,0.0494 -0.12802,0.89686 -0.0983,0.91454 0.005,0.003 0.20723,0.0778 0.45054,0.16694 0.24333,0.0891 0.45269,0.16833 0.46472,0.1754 0.0468,0.0269 0.0573,0.0573 0.0997,0.29213 0.0219,0.11955 0.0395,0.232 0.0395,0.25108 0,0.022 -0.006,0.046 -0.0161,0.0643 -0.0105,0.0205 -0.11812,0.1252 -0.348,0.33881 -0.18319,0.16975 -0.33881,0.31899 -0.34659,0.3303 -0.009,0.0148 -0.0134,0.0332 -0.0127,0.0573 0,0.0325 0.0176,0.0686 0.18038,0.38477 0.0997,0.19169 0.18956,0.3579 0.20017,0.36922 0.0105,0.0111 0.0319,0.0233 0.048,0.0276 0.0276,0.007 0.0616,9.2e-4 0.47178,-0.0912 0.46258,-0.10468 0.47885,-0.10678 0.53048,-0.0828 0.0276,0.0134 0.35648,0.35294 0.37628,0.38831 0.0269,0.0494 0.0255,0.0637 -0.0467,0.34517 -0.16622,0.64861 -0.16267,0.63445 -0.15349,0.66486 0.004,0.0156 0.0156,0.0361 0.0241,0.0461 0.008,0.01 0.17117,0.10543 0.36145,0.21219 0.31332,0.17611 0.3494,0.19451 0.37841,0.19451 0.0191,0 0.0417,-0.006 0.0537,-0.0127 0.012,-0.007 0.16267,-0.15702 0.33597,-0.33313 0.17329,-0.17614 0.32607,-0.32608 0.34093,-0.33315 0.0516,-0.0276 0.0658,-0.0262 0.32465,0.0318 0.13368,0.0298 0.25109,0.0587 0.26029,0.0651 0.0488,0.0318 0.0516,0.0382 0.20229,0.49087 0.14217,0.4265 0.14641,0.43782 0.17328,0.46187 0.0156,0.0141 0.0389,0.0269 0.0545,0.0297 0.0644,0.0123 0.4654,-0.0134 0.72146,-0.046 0.11599,-0.0148 0.14075,-0.0269 0.16055,-0.0799 0.006,-0.0169 0.0531,-0.22774 0.10329,-0.46823 0.0608,-0.28717 0.0969,-0.44561 0.10541,-0.45975 0.0276,-0.0438 0.0481,-0.0545 0.26382,-0.13652 0.23271,-0.0891 0.26242,-0.0955 0.31405,-0.0679 0.0127,0.007 0.17542,0.13509 0.36073,0.28504 0.18602,0.14994 0.3473,0.27796 0.35932,0.28503 0.0156,0.008 0.0318,0.0123 0.0587,0.01 0.0361,-0.003 0.0439,-0.007 0.24686,-0.16126 0.41236,-0.31193 0.45126,-0.34234 0.46471,-0.36144 0.006,-0.01 0.0155,-0.034 0.017,-0.053 0.003,-0.0312 -0.0113,-0.0722 -0.16057,-0.46541 -0.0906,-0.23767 -0.1662,-0.44277 -0.16763,-0.45622 -0.006,-0.0489 0.0105,-0.0792 0.12237,-0.23483 0.0608,-0.0828 0.11748,-0.15843 0.12593,-0.16692 0.0247,-0.0276 0.0671,-0.046 0.10676,-0.0453 0.0191,0 0.23058,0.0212 0.46893,0.0474 l 0.43289,0.0467 0.0304,-0.0134 c 0.0161,-0.007 0.0353,-0.0198 0.0426,-0.0276 0.0105,-0.0111 0.25746,-0.67479 0.29848,-0.79998 0.0156,-0.046 0.006,-0.0849 -0.0304,-0.12164 -0.0142,-0.0148 -0.18955,-0.14713 -0.38972,-0.29425 -0.35931,-0.26381 -0.36355,-0.26736 -0.38123,-0.30627 l -0.0176,-0.0389 0.008,-0.15206 c 0.0113,-0.19876 0.0128,-0.20796 0.0389,-0.24615 0.0213,-0.0304 0.0374,-0.0396 0.43359,-0.23837 0.22704,-0.1139 0.41731,-0.21147 0.42367,-0.21643 0.0156,-0.0134 0.0381,-0.0601 0.0381,-0.0792 0,-0.0298 -0.1832,-0.8608 -0.19451,-0.88272 -0.006,-0.0123 -0.0226,-0.0289 -0.0374,-0.0389 -0.0298,-0.019 7e-4,-0.0169 -0.71653,-0.063 -0.27513,-0.0177 -0.28007,-0.019 -0.32181,-0.0587 -0.0304,-0.0289 -0.15774,-0.26878 -0.16269,-0.30698 -0.002,-0.0191 0,-0.0425 0.006,-0.0594 0.006,-0.0156 0.11465,-0.20441 0.24191,-0.41943 0.22209,-0.37347 0.23199,-0.39186 0.23199,-0.42581 -7.2e-4,-0.0191 -0.004,-0.0425 -0.0105,-0.0523 -0.0105,-0.0177 -0.60121,-0.62525 -0.63516,-0.65142 -0.0113,-0.008 -0.0318,-0.0148 -0.0565,-0.0162 l -0.0403,-0.003 -0.39892,0.2214 c -0.21927,0.12164 -0.41165,0.22563 -0.42722,0.2313 -0.0489,0.0169 -0.0806,0.006 -0.2122,-0.0672 -0.13297,-0.0742 -0.14712,-0.0848 -0.16763,-0.12519 -0.0185,-0.0353 -0.0176,-0.0262 -0.0346,-0.53118 -0.0142,-0.41733 -0.0148,-0.43218 -0.0304,-0.4633 -0.0262,-0.053 0.0255,-0.0374 -0.696,-0.20936 -0.12165,-0.0284 -0.22846,-0.0523 -0.23695,-0.0523 -0.008,7.2e-4 -0.0247,0.005 -0.0368,0.01 z m -0.27232,1.87437 c 0.19451,0.0254 0.35577,0.0615 0.5234,0.11746 0.8905,0.29424 1.57236,1.06097 1.75698,1.97481 0.0403,0.20018 0.0494,0.29636 0.0494,0.52906 7.4e-4,0.21928 -0.002,0.27302 -0.0318,0.44915 -0.1358,0.82684 -0.67547,1.55397 -1.43159,1.92742 -0.28646,0.14147 -0.53402,0.21573 -0.8806,0.26312 -0.10824,0.0148 -0.50289,0.0123 -0.62245,-0.004 -0.61818,-0.0842 -1.15715,-0.35295 -1.5773,-0.78723 -0.60051,-0.62103 -0.85726,-1.47687 -0.70023,-2.33413 0.10328,-0.56372 0.40953,-1.10199 0.84594,-1.48747 0.43075,-0.37982 0.95628,-0.60546 1.53415,-0.65781 0.10677,-0.01 0.43006,-0.004 0.53403,0.008 z"
       id="path3843"
       style="fill:#000080;fill-opacity:1;stroke:none;stroke-width:0.00070731" />
    <path
       d="m 138.10038,142.86803 c 0,0 5.14526,-11.16612 5.1459,-11.16774 l 0.28555,-0.63507 c -1.10686,0.31811 -3.5799,0.92367 -3.58782,0.94831 0.25864,-0.72381 1.37167,-3.9741 1.41962,-3.9741 -1.05795,0 -2.1159,0 -3.17383,0 l -0.322,1.53331 -1.35435,5.55746 3.57779,-0.97406 z"
       id="path4683"
       style="fill:#e9bf09;fill-opacity:1;stroke-width:0.0264647" />
  </g>
</svg>
